HIERARCHY
ROOT Hips
{
	OFFSET 0.000000 0.000000 0.000000
	CHANNELS 6 Xposition Yposition Zposition Xrotation Yrotation Zrotation
	JOINT LeftUpLeg_virtual
	{
		OFFSET 0.000000 0.000000 0.000000
		CHANNELS 3 Xrotation Yrotation Zrotation
		JOINT LeftUpLeg
		{
			OFFSET 11.394100 -6.187798 -0.413800
			CHANNELS 3 Xrotation Yrotation Zrotation
			JOINT LeftLeg
			{
				OFFSET 0.430247 -32.302673 3.732800
				CHANNELS 3 Xrotation Yrotation Zrotation
				JOINT LeftFoot
				{
					OFFSET -0.430247 -48.264931 -6.423300
					CHANNELS 3 Xrotation Yrotation Zrotation
					JOINT LeftToeBase
					{
						OFFSET 4.230900 -16.068199 23.438400
						CHANNELS 3 Xrotation Yrotation Zrotation
						JOINT LeftToe_End
						{
							OFFSET 4.510700 0.695400 19.974600
							CHANNELS 3 Xrotation Yrotation Zrotation
							End Site
							{
								OFFSET 0 0 0
							}
						}
					}
				}
			}
		}
	}
	JOINT RightUpLeg_virtual
	{
		OFFSET 0.000000 0.000000 0.000000
		CHANNELS 3 Xrotation Yrotation Zrotation
		JOINT RightUpLeg
		{
			OFFSET -11.333700 -6.187798 -0.413800
			CHANNELS 3 Xrotation Yrotation Zrotation
			JOINT RightLeg
			{
				OFFSET -0.430392 -32.302628 3.733000
				CHANNELS 3 Xrotation Yrotation Zrotation
				JOINT RightFoot
				{
					OFFSET 0.430392 -48.264973 -6.423500
					CHANNELS 3 Xrotation Yrotation Zrotation
					JOINT RightToeBase
					{
						OFFSET -4.230900 -16.068199 23.438400
						CHANNELS 3 Xrotation Yrotation Zrotation
						JOINT RightToe_End
						{
							OFFSET -4.510700 0.695400 19.974600
							CHANNELS 3 Xrotation Yrotation Zrotation
							End Site
							{
								OFFSET 0 0 0
							}
						}
					}
				}
			}
		}
	}
	JOINT Spine_virtual
	{
		OFFSET 0.000000 0.000000 0.000000
		CHANNELS 3 Xrotation Yrotation Zrotation
		JOINT Spine
		{
			OFFSET -0.002400 12.777504 0.315300
			CHANNELS 3 Xrotation Yrotation Zrotation
			JOINT Spine1
			{
				OFFSET -0.002067 5.816869 0.032633
				CHANNELS 3 Xrotation Yrotation Zrotation
				JOINT Spine1_split
				{
					OFFSET -0.002067 5.816869 0.032633
					CHANNELS 3 Xrotation Yrotation Zrotation
					JOINT Spine2
					{
						OFFSET -0.002067 5.816869 0.032633
						CHANNELS 3 Xrotation Yrotation Zrotation
						JOINT Neck_virtual
						{
							OFFSET 0.000000 0.000000 0.000000
							CHANNELS 3 Xrotation Yrotation Zrotation
							JOINT Neck
							{
								OFFSET -0.003700 21.199493 -0.826900
								CHANNELS 3 Xrotation Yrotation Zrotation
								JOINT Head
								{
									OFFSET 0.000000 20.442200 4.834800
									CHANNELS 3 Xrotation Yrotation Zrotation
									JOINT HeadTop_End
									{
										OFFSET 0.000000 34.668396 4.968400
										CHANNELS 3 Xrotation Yrotation Zrotation
										End Site
										{
											OFFSET 0 0 0
										}
									}
								}
							}
						}
						JOINT LeftShoulder_virtual
						{
							OFFSET 0.000000 0.000000 0.000000
							CHANNELS 3 Xrotation Yrotation Zrotation
							JOINT LeftShoulder
							{
								OFFSET 3.288150 8.794197 -1.372250
								CHANNELS 3 Xrotation Yrotation Zrotation
								JOINT LeftShoulder_split
								{
									OFFSET 3.288150 8.794197 -1.372250
									CHANNELS 3 Xrotation Yrotation Zrotation
									JOINT LeftArm
									{
										OFFSET 11.953299 -2.279007 -0.146200
										CHANNELS 3 Xrotation Yrotation Zrotation
										JOINT LeftForeArm
										{
											OFFSET 18.448900 0.000000 0.000000
											CHANNELS 3 Xrotation Yrotation Zrotation
											JOINT LeftHand
											{
												OFFSET 29.527798 0.000000 0.000000
												CHANNELS 3 Xrotation Yrotation Zrotation
												End Site
												{
													OFFSET 0 0 0
												}
											}
										}
									}
								}
							}
						}
						JOINT RightShoulder_virtual
						{
							OFFSET 0.000000 0.000000 0.000000
							CHANNELS 3 Xrotation Yrotation Zrotation
							JOINT RightShoulder
							{
								OFFSET -3.249400 8.794197 -1.372250
								CHANNELS 3 Xrotation Yrotation Zrotation
								JOINT RightShoulder_split
								{
									OFFSET -3.249400 8.794197 -1.372250
									CHANNELS 3 Xrotation Yrotation Zrotation
									JOINT RightArm
									{
										OFFSET -11.953299 -2.279007 -0.146200
										CHANNELS 3 Xrotation Yrotation Zrotation
										JOINT RightForeArm
										{
											OFFSET -18.448900 0.000000 0.000000
											CHANNELS 3 Xrotation Yrotation Zrotation
											JOINT RightHand
											{
												OFFSET -29.527802 0.000000 0.000000
												CHANNELS 3 Xrotation Yrotation Zrotation
												End Site
												{
													OFFSET 0 0 0
												}
											}
										}
									}
								}
							}
						}
					}
				}
			}
		}
	}
}
MOTION
Frames: 9
Frame Time: 0.03333333
12.281963 90.250038 71.666946 0.000000 0.000000 0.000000 163.096270 49.652753 -173.056093 -51.903191 -6.535519 18.052422 29.291772 -40.826052 3.678513 1.645212 -1.172017 -19.003782 0.782741 1.815281 -4.803606 0.000000 0.000000 0.000000 163.096270 49.652753 -173.056093 -36.438492 -24.483850 -27.501757 44.703721 -8.505759 6.387105 -12.569343 -3.605041 16.071894 0.119886 -2.068474 0.002523 0.000000 0.000000 0.000000 163.096270 49.652753 -173.056093 12.622822 3.550279 -3.567184 11.663237 11.031780 -15.073980 0.000000 0.000000 0.000000 0.000000 0.000000 0.000000 0.830130 14.573235 -10.818441 11.049061 7.758146 8.929913 -10.080373 11.211612 -3.802282 0.000000 0.000000 0.000000 0.830130 14.573235 -10.818441 0.560203 12.569471 -8.809952 0.000000 0.000000 0.000000 21.591042 29.149622 -64.927218 -59.006954 -28.841734 -29.005337 0.000000 0.000000 0.000000 0.830130 14.573235 -10.818441 1.220464 16.569691 3.011181 0.000000 0.000000 0.000000 -64.817881 30.099991 76.400891 53.142960 8.465472 3.719469 0.000000 0.000000 0.000000 
11.715300 90.292709 70.775475 0.000000 0.000000 0.000000 161.682612 54.604466 -171.155962 -51.385740 -6.511172 19.764127 32.174648 -37.346142 3.648972 -0.012142 -0.511211 -17.973192 0.660208 1.783065 -5.126196 0.000000 0.000000 0.000000 161.682612 54.604466 -171.155962 -37.909599 -23.185303 -28.071603 43.636590 -4.568444 6.639454 -11.253145 -3.094805 14.688185 0.117188 -1.459241 0.001747 0.000000 0.000000 0.000000 161.682612 54.604466 -171.155962 12.236677 3.381010 -3.500287 10.965544 10.728926 -14.870413 0.000000 0.000000 0.000000 0.000000 0.000000 0.000000 0.112411 14.271529 -10.661714 11.492973 7.964789 9.125448 -9.194650 11.332436 -3.605142 0.000000 0.000000 0.000000 0.112411 14.271529 -10.661714 0.813237 12.488586 -10.557388 0.000000 0.000000 0.000000 13.645979 26.592998 -57.689178 -53.947050 -30.883824 -28.900829 0.000000 0.000000 0.000000 0.112411 14.271529 -10.661714 1.273171 15.702842 2.792939 0.000000 0.000000 0.000000 -54.445647 25.923081 69.909855 52.735938 24.416350 -3.568415 0.000000 0.000000 0.000000 
11.118806 90.138588 69.610046 0.000000 0.000000 0.000000 159.382410 59.792555 -168.282542 -51.154903 -6.484310 21.310165 35.686690 -34.194857 3.362176 -1.980871 0.761428 -16.715626 0.515232 1.752819 -5.441867 0.000000 0.000000 0.000000 159.382410 59.792555 -168.282542 -39.528115 -20.554667 -27.384438 43.068024 -1.873962 5.752043 -9.786065 -2.949821 14.428988 0.114999 -1.116141 0.001305 0.000000 0.000000 0.000000 159.382410 59.792555 -168.282542 11.867918 3.082474 -3.528997 10.229988 10.162640 -14.847122 0.000000 0.000000 0.000000 0.000000 0.000000 0.000000 -0.614444 13.733332 -10.758702 11.010713 8.424219 9.546993 -8.439478 11.806065 -3.339570 0.000000 0.000000 0.000000 -0.614444 13.733332 -10.758702 1.071490 10.981002 -12.641558 0.000000 0.000000 0.000000 4.703249 23.263346 -48.179434 -46.562527 -32.888447 -28.000987 0.000000 0.000000 0.000000 -0.614444 13.733332 -10.758702 1.324154 15.108464 2.201999 0.000000 0.000000 0.000000 -47.206200 21.442346 61.337346 50.425145 43.036578 -2.171563 0.000000 0.000000 0.000000 
10.501798 89.820381 67.779663 0.000000 0.000000 0.000000 157.286143 65.505148 -165.623017 -50.245009 -7.008392 21.961326 40.813874 -31.692566 3.687834 -4.812179 3.955541 -15.101961 0.349156 1.728456 -5.725446 0.000000 0.000000 0.000000 157.286143 65.505148 -165.623017 -40.008970 -17.000518 -25.465548 42.333489 -0.005446 3.869608 -8.091933 -2.964263 15.422818 0.062590 -0.927783 0.163891 0.000000 0.000000 0.000000 157.286143 65.505148 -165.623017 11.774228 2.595702 -3.487644 10.011899 9.195031 -14.668214 0.000000 0.000000 0.000000 0.000000 0.000000 0.000000 -0.814484 12.775102 -10.790352 9.041950 8.984289 9.654751 -7.873762 12.396022 -3.030018 0.000000 0.000000 0.000000 -0.814484 12.775102 -10.790352 1.202608 7.891111 -14.786741 0.000000 0.000000 0.000000 -3.782318 19.006859 -37.941103 -39.607567 -33.310713 -28.196809 0.000000 0.000000 0.000000 -0.814484 12.775102 -10.790352 1.346351 13.894981 1.338374 0.000000 0.000000 0.000000 -42.651321 18.252069 54.400848 47.636745 58.063602 0.413409 0.000000 0.000000 0.000000 
9.815594 89.515945 65.254578 0.000000 0.000000 0.000000 154.375034 70.832859 -162.576220 -49.306750 -7.793367 21.537405 46.060211 -27.646220 4.499005 -7.748791 6.050384 -13.668668 0.191344 1.705623 -5.998325 0.000000 0.000000 0.000000 154.375034 70.832859 -162.576220 -39.719244 -13.922798 -23.333019 40.713576 1.630067 1.724318 -6.479312 -2.981328 17.210987 0.567604 -0.494604 1.356430 0.000000 0.000000 0.000000 154.375034 70.832859 -162.576220 11.788353 1.833015 -3.319225 9.913046 7.662647 -14.310634 0.000000 0.000000 0.000000 0.000000 0.000000 0.000000 -0.857372 11.201520 -10.776191 4.698420 9.004978 9.354312 -5.505524 12.006159 -1.300545 0.000000 0.000000 0.000000 -0.857372 11.201520 -10.776191 1.040648 4.643208 -14.647436 0.000000 0.000000 0.000000 -11.365997 12.556721 -29.944915 -24.361567 -33.733495 -22.907529 0.000000 0.000000 0.000000 -0.857372 11.201520 -10.776191 1.281193 12.895620 0.941410 0.000000 0.000000 0.000000 -38.989011 15.677156 47.455389 40.479198 70.754169 6.254662 0.000000 0.000000 0.000000 
9.161292 89.614235 61.983696 0.000000 0.000000 0.000000 148.597432 75.059305 -157.080390 -49.051693 -7.577700 20.504283 49.963906 -22.814802 5.311650 -9.970312 6.216455 -12.179814 0.048289 1.689207 -6.245849 0.000000 0.000000 0.000000 148.597432 75.059305 -157.080390 -38.542037 -12.076675 -21.789400 36.996976 3.253540 0.026061 -5.099921 -2.876118 19.396723 0.592201 -0.455146 4.825778 0.000000 0.000000 0.000000 148.597432 75.059305 -157.080390 11.699192 0.938387 -3.024349 9.566011 5.817758 -14.008145 0.000000 0.000000 0.000000 0.000000 0.000000 0.000000 -1.097720 9.276871 -10.877556 2.143979 8.133656 9.404344 -4.311867 10.945576 -0.034396 0.000000 0.000000 0.000000 -1.097720 9.276871 -10.877556 0.683781 1.920390 -13.202698 0.000000 0.000000 0.000000 -16.801412 5.667619 -24.889734 -9.904961 -33.091457 -15.719516 0.000000 0.000000 0.000000 -1.097720 9.276871 -10.877556 1.007811 12.107956 2.298671 0.000000 0.000000 0.000000 -34.753375 11.977914 40.331290 41.491958 82.735639 2.252569 0.000000 0.000000 0.000000 
8.508744 90.237267 57.933136 0.000000 0.000000 0.000000 133.677280 77.825129 -142.677980 -49.908397 -6.817546 19.503619 51.866828 -17.971251 4.865976 -11.302082 5.561170 -10.059778 -0.123446 1.684691 -6.335561 0.000000 0.000000 0.000000 133.677280 77.825129 -142.677980 -37.579667 -10.340935 -20.823107 32.561858 2.301577 -1.397179 -7.130832 -3.339477 22.289513 -0.601951 -0.610677 4.781742 0.000000 0.000000 0.000000 133.677280 77.825129 -142.677980 11.160945 0.078750 -2.447906 8.309114 4.024617 -13.473370 0.000000 0.000000 0.000000 0.000000 0.000000 0.000000 -2.266013 7.318470 -10.729766 4.174000 6.801294 7.490951 -5.929075 8.445567 1.870089 0.000000 0.000000 0.000000 -2.266013 7.318470 -10.729766 0.589576 -2.688452 -10.792072 0.000000 0.000000 0.000000 -20.186979 1.237692 -22.495040 -2.781853 -31.723449 -11.198604 0.000000 0.000000 0.000000 -2.266013 7.318470 -10.729766 0.953749 9.350888 2.755518 0.000000 0.000000 0.000000 -29.917499 8.102764 36.081051 -158.972776 89.016824 -159.792849 0.000000 0.000000 0.000000 
7.752403 90.978584 53.561684 0.000000 0.000000 0.000000 113.958947 78.844227 -123.652065 -51.443001 -5.641142 18.973354 52.884857 -14.426362 3.546013 -11.983844 4.762969 -7.184082 -0.275158 1.686269 -6.354893 0.000000 0.000000 0.000000 113.958947 78.844227 -123.652065 -37.704239 -7.964410 -19.647113 30.603831 -1.023363 -2.792708 -12.198637 -4.839928 22.532319 3.078577 -0.973959 5.692290 0.000000 0.000000 0.000000 113.958947 78.844227 -123.652065 10.591239 -0.666747 -1.679466 7.168724 2.480032 -12.447527 0.000000 0.000000 0.000000 0.000000 0.000000 0.000000 -3.404402 5.564341 -10.035407 8.558593 4.893187 7.202857 -9.123326 6.145783 2.160163 0.000000 0.000000 0.000000 -3.404402 5.564341 -10.035407 0.647692 -7.193516 -9.010384 0.000000 0.000000 0.000000 -23.217172 -3.611647 -21.600794 0.094205 -31.025356 -7.971253 0.000000 0.000000 0.000000 -3.404402 5.564341 -10.035407 0.793194 6.773750 3.146208 0.000000 0.000000 0.000000 -25.068200 3.196866 31.384180 -111.428772 81.371377 151.457874 0.000000 0.000000 0.000000 
7.161988 91.706955 48.739342 0.000000 0.000000 0.000000 93.411641 78.944419 -103.331282 -52.236706 -3.616597 18.006832 53.444697 -10.947301 2.271695 -12.682658 3.922006 -3.967923 -0.359130 1.689269 -6.385418 0.000000 0.000000 0.000000 93.411641 78.944419 -103.331282 -38.185043 -6.840919 -19.064033 29.975395 -8.567389 -4.287310 -14.822330 -5.230659 20.822848 7.256349 -1.731279 7.164573 0.000000 0.000000 0.000000 93.411641 78.944419 -103.331282 10.315887 -1.428222 -0.866167 6.759872 0.953118 -10.945631 0.000000 0.000000 0.000000 0.000000 0.000000 0.000000 -3.890909 3.789509 -8.880103 11.542104 3.553845 7.540786 -12.326733 4.538274 2.581123 0.000000 0.000000 0.000000 -3.890909 3.789509 -8.880103 0.732737 -10.668569 -7.807304 0.000000 0.000000 0.000000 -25.641273 -7.974806 -21.156846 12.390002 -30.384295 0.445506 0.000000 0.000000 0.000000 -3.890909 3.789509 -8.880103 0.690962 4.865341 2.497919 0.000000 0.000000 0.000000 -20.892721 -1.061976 28.674473 -113.313535 76.185077 150.523081 0.000000 0.000000 0.000000 
